<svg xmlns="http://www.w3.org/2000/svg" width="74.278" height="75.33" viewBox="0 0 74.278 75.33">
  <g id="Group_409" data-name="Group 409" transform="translate(-122 -693.67)">
    <path id="Path_3349" data-name="Path 3349" d="M51.119,50.626A1.721,1.721,0,0,1,49.4,52.345H24.438a1.721,1.721,0,0,1-1.719-1.719V25.664a1.721,1.721,0,0,1,1.719-1.719H41.617V21.652H24.438a4.016,4.016,0,0,0-4.011,4.011V50.626a4.016,4.016,0,0,0,4.011,4.011H49.4a4.016,4.016,0,0,0,4.011-4.011V34.133H51.12V50.626Zm-22.7-17-1.492,1.739L35.588,42.8,54.024,22.373l-1.7-1.536L35.385,39.6Z" transform="translate(142.255 672.833)" />
    <g id="Path_3350" data-name="Path 3350" transform="translate(122 694.923)" fill="none">
      <path d="M3.715,0H28.792a3.715,3.715,0,0,1,3.715,3.715V28.792a3.715,3.715,0,0,1-3.715,3.715H3.715A3.715,3.715,0,0,1,0,28.792V3.715A3.715,3.715,0,0,1,3.715,0Z" stroke="none"/>
      <path d="M 3.715070724487305 2.000003814697266 C 2.769380569458008 2.000003814697266 2 2.769382476806641 2 3.715072631835938 L 2 28.79180335998535 C 2 29.73749351501465 2.769380569458008 30.50686264038086 3.715070724487305 30.50686264038086 L 28.79177093505859 30.50686264038086 C 29.73745918273926 30.50686264038086 30.50683975219727 29.73749351501465 30.50683975219727 28.79180335998535 L 30.50683975219727 3.715072631835938 C 30.50683975219727 2.769382476806641 29.73745918273926 2.000003814697266 28.79177093505859 2.000003814697266 L 3.715070724487305 2.000003814697266 M 3.715070724487305 3.814697265625e-06 L 28.79177093505859 3.814697265625e-06 C 30.84354972839355 3.814697265625e-06 32.50683975219727 1.663293838500977 32.50683975219727 3.715072631835938 L 32.50683975219727 28.79180335998535 C 32.50683975219727 30.84357261657715 30.84354972839355 32.50686264038086 28.79177093505859 32.50686264038086 L 3.715070724487305 32.50686264038086 C 1.663290023803711 32.50686264038086 0 30.84357261657715 0 28.79180335998535 L 0 3.715072631835938 C 0 1.663293838500977 1.663290023803711 3.814697265625e-06 3.715070724487305 3.814697265625e-06 Z" stroke="none" fill="currentColor"/>
    </g>
    <g id="Path_3351" data-name="Path 3351" transform="translate(122 736.493)" fill="none">
      <path d="M3.715,0H28.792a3.715,3.715,0,0,1,3.715,3.715V28.792a3.715,3.715,0,0,1-3.715,3.715H3.715A3.715,3.715,0,0,1,0,28.792V3.715A3.715,3.715,0,0,1,3.715,0Z" stroke="none"/>
      <path d="M 3.715070724487305 2.000003814697266 C 2.769380569458008 2.000003814697266 2 2.769382476806641 2 3.715072631835938 L 2 28.79180335998535 C 2 29.73749351501465 2.769380569458008 30.50686264038086 3.715070724487305 30.50686264038086 L 28.79177093505859 30.50686264038086 C 29.73745918273926 30.50686264038086 30.50683975219727 29.73749351501465 30.50683975219727 28.79180335998535 L 30.50683975219727 3.715072631835938 C 30.50683975219727 2.769382476806641 29.73745918273926 2.000003814697266 28.79177093505859 2.000003814697266 L 3.715070724487305 2.000003814697266 M 3.715070724487305 3.814697265625e-06 L 28.79177093505859 3.814697265625e-06 C 30.84354972839355 3.814697265625e-06 32.50683975219727 1.663293838500977 32.50683975219727 3.715072631835938 L 32.50683975219727 28.79180335998535 C 32.50683975219727 30.84357261657715 30.84354972839355 32.50686264038086 28.79177093505859 32.50686264038086 L 3.715070724487305 32.50686264038086 C 1.663290023803711 32.50686264038086 0 30.84357261657715 0 28.79180335998535 L 0 3.715072631835938 C 0 1.663293838500977 1.663290023803711 3.814697265625e-06 3.715070724487305 3.814697265625e-06 Z" stroke="none" fill="currentColor"/>
    </g>
    <g id="Path_3352" data-name="Path 3352" transform="translate(162.682 736.493)" fill="none">
      <path d="M3.715,0H28.792a3.715,3.715,0,0,1,3.715,3.715V28.792a3.715,3.715,0,0,1-3.715,3.715H3.715A3.715,3.715,0,0,1,0,28.792V3.715A3.715,3.715,0,0,1,3.715,0Z" stroke="none"/>
      <path d="M 3.715070724487305 2.000003814697266 C 2.769380569458008 2.000003814697266 2 2.769382476806641 2 3.715072631835938 L 2 28.79180335998535 C 2 29.73749351501465 2.769380569458008 30.50686264038086 3.715070724487305 30.50686264038086 L 28.79177093505859 30.50686264038086 C 29.73745918273926 30.50686264038086 30.50683975219727 29.73749351501465 30.50683975219727 28.79180335998535 L 30.50683975219727 3.715072631835938 C 30.50683975219727 2.769382476806641 29.73745918273926 2.000003814697266 28.79177093505859 2.000003814697266 L 3.715070724487305 2.000003814697266 M 3.715070724487305 3.814697265625e-06 L 28.79177093505859 3.814697265625e-06 C 30.84354972839355 3.814697265625e-06 32.50683975219727 1.663293838500977 32.50683975219727 3.715072631835938 L 32.50683975219727 28.79180335998535 C 32.50683975219727 30.84357261657715 30.84354972839355 32.50686264038086 28.79177093505859 32.50686264038086 L 3.715070724487305 32.50686264038086 C 1.663290023803711 32.50686264038086 0 30.84357261657715 0 28.79180335998535 L 0 3.715072631835938 C 0 1.663293838500977 1.663290023803711 3.814697265625e-06 3.715070724487305 3.814697265625e-06 Z" stroke="none" fill="currentColor"/>
    </g>
  </g>
</svg>
