<svg xmlns="http://www.w3.org/2000/svg" width="147" height="193" viewBox="0 0 147 193">
  <g id="Group_943" data-name="Group 943" transform="translate(-1704 -56)">
    <g id="Group_410" data-name="Group 410" transform="translate(1704 56)" opacity="0.55">
      <path id="Path_3339" data-name="Path 3339" d="M116.724,135.69H86.886v32.02h-21.1V61.789A73.521,73.521,0,0,0,116.724,197.85Z" transform="translate(-28.305 -52.365)" />
      <path id="Path_3340" data-name="Path 3340" d="M114.778,50.278A73.837,73.837,0,0,0,99.86,51.794v60.7H129.7V81.934h21.1V187.856A73.506,73.506,0,0,0,114.778,50.278Z" transform="translate(-41.279 -50.278)" />
    </g>
    <g id="Group_24" data-name="Group 24" transform="translate(1743 223.895)">
      <path id="Path_684" data-name="Path 684" d="M1386.368-196.315a1.965,1.965,0,0,1-1.443-.6,1.966,1.966,0,0,1-.6-1.443v-14.183a1.966,1.966,0,0,1,.6-1.443,1.965,1.965,0,0,1,1.443-.6,1.966,1.966,0,0,1,1.443.6,1.966,1.966,0,0,1,.6,1.443v8.192h8.192v-8.192a1.966,1.966,0,0,1,.6-1.443,1.965,1.965,0,0,1,1.443-.6,1.966,1.966,0,0,1,1.443.6,1.965,1.965,0,0,1,.6,1.443v20.463a1.966,1.966,0,0,1-.6,1.443,1.966,1.966,0,0,1-1.443.6,1.966,1.966,0,0,1-1.443-.6,1.966,1.966,0,0,1-.6-1.443v-8.192h-8.192v1.911a1.966,1.966,0,0,1-.6,1.443A1.966,1.966,0,0,1,1386.368-196.315Z" transform="translate(-1384.209 214.577)" />
      <path id="Path_685" data-name="Path 685" d="M1515.5-190.035a11.324,11.324,0,0,1-3.391-.439,7.635,7.635,0,0,1-2.264-1.094,6.119,6.119,0,0,1-1.36-1.335,5.73,5.73,0,0,1-.8-1.443,6.052,6.052,0,0,1-.315-1.186,6.136,6.136,0,0,1-.066-.638v-12.271a6.14,6.14,0,0,1,.066-.638,6.062,6.062,0,0,1,.315-1.186,5.729,5.729,0,0,1,.8-1.443,5.991,5.991,0,0,1,1.36-1.327,7.918,7.918,0,0,1,2.264-1.094,11.128,11.128,0,0,1,3.391-.448,11.049,11.049,0,0,1,3.383.448,7.942,7.942,0,0,1,2.255,1.094,6,6,0,0,1,1.36,1.327,5.966,5.966,0,0,1,.8,1.443,5.394,5.394,0,0,1,.315,1.186q.058.489.058.638v12.271q0,.149-.058.638a5.386,5.386,0,0,1-.315,1.186,5.967,5.967,0,0,1-.8,1.443,6.126,6.126,0,0,1-1.36,1.335,7.656,7.656,0,0,1-2.255,1.094A11.244,11.244,0,0,1,1515.5-190.035Zm-4.1-18.357v12.172a1.5,1.5,0,0,0,.133.5,1.972,1.972,0,0,0,.539.7,3.409,3.409,0,0,0,1.219.63,7.342,7.342,0,0,0,2.206.265,7.345,7.345,0,0,0,2.206-.265,3.416,3.416,0,0,0,1.219-.63,1.879,1.879,0,0,0,.531-.7,1.584,1.584,0,0,0,.124-.5v-12.172a1.587,1.587,0,0,0-.124-.5,1.882,1.882,0,0,0-.531-.7,3.423,3.423,0,0,0-1.219-.63,7.36,7.36,0,0,0-2.206-.265,7.357,7.357,0,0,0-2.206.265,3.417,3.417,0,0,0-1.219.63,1.976,1.976,0,0,0-.539.7A1.505,1.505,0,0,0,1511.4-208.392Z" transform="translate(-1488.349 214.577)" />
      <path id="Path_686" data-name="Path 686" d="M1632.431-190.035a1.966,1.966,0,0,1-1.443-.6,1.966,1.966,0,0,1-.6-1.443v-20.463a1.965,1.965,0,0,1,.6-1.443,1.966,1.966,0,0,1,1.443-.6,1.994,1.994,0,0,1,1.451.6,1.953,1.953,0,0,1,.605,1.443v18.407h6.135a1.953,1.953,0,0,1,1.443.605,1.994,1.994,0,0,1,.6,1.451,1.966,1.966,0,0,1-.6,1.443,1.967,1.967,0,0,1-1.443.6Z" transform="translate(-1592.581 214.577)" />
      <path id="Path_687" data-name="Path 687" d="M1726.016-190.118a1.986,1.986,0,0,1-1.21-.995,2.024,2.024,0,0,1-.232-.945,2.411,2.411,0,0,1,.083-.614l6.136-20.446a2,2,0,0,1,.738-1.061,2,2,0,0,1,1.219-.4,1.967,1.967,0,0,1,1.211.4,2.106,2.106,0,0,1,.746,1.061l4.757,16a2.348,2.348,0,0,1,.083.6,2.354,2.354,0,0,1-.315,1.1,1.859,1.859,0,0,1-1.144.854,2.157,2.157,0,0,1-.58.083,1.725,1.725,0,0,1-1.838-1.247l-.15-.446h-5.555l-1.393,4.676a1.989,1.989,0,0,1-.995,1.211,1.951,1.951,0,0,1-.962.249A2.337,2.337,0,0,1,1726.016-190.118Zm6.733-15.289-1.559,5.141h3.1Z" transform="translate(-1672.336 214.577)" />
      <path id="Path_688" data-name="Path 688" d="M1385.591-81.423a1.965,1.965,0,0,1,1.443.6,1.965,1.965,0,0,1,.6,1.443,1.992,1.992,0,0,1-.6,1.451,1.951,1.951,0,0,1-1.443.605,1.951,1.951,0,0,1-1.443-.605,1.992,1.992,0,0,1-.6-1.451,1.965,1.965,0,0,1,.6-1.443A1.965,1.965,0,0,1,1385.591-81.423Z" transform="translate(-1383.552 101.82)" />
      <path id="Path_689" data-name="Path 689" d="M1809.591-77.423a1.965,1.965,0,0,1,1.442.6,1.965,1.965,0,0,1,.6,1.443,1.993,1.993,0,0,1-.6,1.451,1.951,1.951,0,0,1-1.442.605,1.952,1.952,0,0,1-1.443-.605,1.993,1.993,0,0,1-.6-1.451,1.965,1.965,0,0,1,.6-1.443A1.966,1.966,0,0,1,1809.591-77.423Z" transform="translate(-1742.603 98.432)" />
    </g>
  </g>
</svg>
