<svg id="Group_408" data-name="Group 408" xmlns="http://www.w3.org/2000/svg" width="73.419" height="73.795" viewBox="0 0 73.419 73.795">
  <path id="Path_3341" data-name="Path 3341" d="M109.741,95.776a21.877,21.877,0,1,0-30.062,0C65.868,100.124,58,110.448,58,124.374v7.045H82.844v-2.225H60.225v-4.82c0-7.011,2.068-12.965,6.146-17.7,3.76-4.361,9.251-7.588,15.88-9.329l2.176-.572L82.65,95.4a19.653,19.653,0,1,1,24.119,0l-1.776,1.382,2.176.572c6.629,1.742,12.12,4.968,15.88,9.329,4.078,4.731,6.146,10.684,6.146,17.7v4.82H106.575v2.225h24.844v-7.045C131.419,110.448,123.551,100.124,109.741,95.776Z" transform="translate(-58 -58)" />
  <path id="Path_3342" data-name="Path 3342" d="M216.824,294.283l-.39-2.19-9,1.6-.583-1.036-.583,1.036-9-1.6-.39,2.19,8.234,1.464-9.448,16.8,11.186,9.943,11.186-9.943-9.448-16.8Zm-9.972,25.227-8.368-7.438,8.368-14.877,8.368,14.876Z" transform="translate(-170.142 -248.692)" />
</svg>
