<svg xmlns="http://www.w3.org/2000/svg" width="82.774" height="107.894" viewBox="0 0 82.774 107.894">
  <path id="Path_3348" data-name="Path 3348" d="M35.648,270.8a.457.457,0,0,0-.458.457v34.686H16.034a.457.457,0,0,0-.457.458v70.3c-6.332,0-11.053.008-11.8.016a.457.457,0,1,0,.012.914c.716-.008,5.512-.012,11.991-.017a.457.457,0,0,0,.257.079h56.3a.457.457,0,0,0,.21-.052l12.044.008a.457.457,0,1,0,0-.914s-8.8-.008-11.8-.008V271.258a.457.457,0,0,0-.457-.457Zm.457.914H71.873V376.727c-2.637,0-5.776,0-9.762-.008V306.4c0-.015,0-.03,0-.046a.457.457,0,0,0-.454-.412H36.105ZM16.491,306.857H61.2V376.72c-4.547,0-5.49,0-10.872-.008V354.161a8.192,8.192,0,0,0-8.2-8.2H35.565a8.192,8.192,0,0,0-8.2,8.2V376.7c-3.737,0-7.8,0-10.872,0Zm9.02,11.13a.457.457,0,0,0,0,.914H52.325a.457.457,0,1,0,0-.914Zm0,8.017a.457.457,0,0,0,0,.914H52.325a.457.457,0,0,0,0-.915Zm0,8.017a.457.457,0,1,0,0,.914H52.325a.457.457,0,1,0,0-.914Zm10.056,12.859h6.554a7.259,7.259,0,0,1,7.29,7.281v22.551l-3.992,0c-6.143,0-11.49,0-17.14-.008V354.16a7.259,7.259,0,0,1,7.289-7.281Z" transform="translate(-2.797 -270.3)"  stroke="currentColor" stroke-width="2"/>
</svg>
