<?xml version="1.0" encoding="iso-8859-1"?>
<!-- Generator: Adobe Illustrator 19.0.0, SVG Export Plug-In . SVG Version: 6.00 Build 0)  -->
<svg version="1.1" id="Capa_1" xmlns="http://www.w3.org/2000/svg" xmlns:xlink="http://www.w3.org/1999/xlink" x="0px" y="0px"
	 viewBox="0 0 512 512" style="enable-background:new 0 0 512 512;" xml:space="preserve">
<g>
	<g>
		<path d="M379.924,414.822l-49.409-91.782c-1.966-3.653-6.525-5.023-10.178-3.055c-3.654,1.967-5.023,6.525-3.055,10.179
			l49.409,91.782c8.573,15.925,8.153,34.702-1.122,50.228c-9.275,15.526-25.61,24.795-43.695,24.795H143.83
			c-18.086,0-34.421-9.269-43.695-24.795c-9.275-15.526-9.695-34.303-1.122-50.228l94.743-175.995
			c0.59-1.095,0.898-2.319,0.898-3.562V225.35h22.396h31.606h22.396v17.039c0,1.243,0.309,2.467,0.899,3.562l31.199,57.955
			c1.967,3.654,6.525,5.022,10.178,3.055c3.654-1.967,5.023-6.525,3.055-10.179l-30.3-56.287v-22.659v-56.437
			c0-4.15-3.364-7.515-7.515-7.515h-7.181V132.23h20.326c1.993,0,3.905-0.792,5.314-2.201l9.225-9.226
			c6.542,23.748,23.25,43.959,45.953,54.642c1.034,0.487,2.122,0.717,3.194,0.717c2.82,0,5.524-1.596,6.804-4.317
			c1.767-3.754,0.155-8.232-3.6-10c-21.43-10.085-36.378-30.464-39.669-53.726l17.089-17.089h22.439c4.15,0,7.515-3.365,7.515-7.515
			V27.079c0-4.15-3.365-7.515-7.515-7.515h-17.883V7.515c0-4.15-3.364-7.515-7.515-7.515c-30.569,0-60.212,6.025-88.107,17.905
			c-3.818,1.627-5.595,6.04-3.969,9.858c1.626,3.817,6.037,5.596,9.859,3.97c23.731-10.108,48.825-15.672,74.702-16.573v11.919
			v53.17l-19.759,19.759c-0.024,0.024-0.048,0.048-0.072,0.072l-17.12,17.12h-24.728h-62.034h-49.018
			c18.003-30.045,43.217-55.148,73.52-73.067c3.572-2.112,4.756-6.72,2.644-10.293c-2.112-3.572-6.723-4.756-10.293-2.643
			c-36.344,21.492-65.856,52.629-85.345,90.047c-1.212,2.33-1.121,5.123,0.24,7.368c1.362,2.245,3.798,3.617,6.425,3.617h54.312
			v21.654h-7.182c-4.151,0-7.515,3.365-7.515,7.515v56.437v22.659L85.779,414.822c-11.105,20.628-10.562,44.95,1.452,65.06
			C99.245,499.994,120.403,512,143.83,512h178.044c23.427,0,44.585-12.006,56.599-32.118
			C390.486,459.771,391.029,435.449,379.924,414.822z M340.578,34.594h10.368v41.408h-10.368V34.594z M209.349,132.23h47.006v21.654
			h-47.006V132.23z M194.653,168.914h7.182h62.035h7.181v41.408h-14.882v-24.843c0-4.15-3.365-7.515-7.515-7.515
			c-4.151,0-7.515,3.365-7.515,7.515v24.843h-16.576v-24.843c0-4.15-3.364-7.515-7.515-7.515c-4.151,0-7.515,3.365-7.515,7.515
			v24.843h-14.881V168.914z"/>
	</g>
</g>
<g>
	<g>
		<path d="M426.666,47.783h-32.733c-4.151,0-7.515,3.365-7.515,7.515c0,4.15,3.364,7.515,7.515,7.515h32.733
			c4.151,0,7.515-3.365,7.515-7.515C434.181,51.148,430.816,47.783,426.666,47.783z"/>
	</g>
</g>
<g>
	<g>
		<path d="M428.008,90.631L397.69,73.136c-3.597-2.073-8.191-0.843-10.265,2.753c-2.074,3.594-0.842,8.19,2.752,10.265
			l30.318,17.495c1.184,0.682,2.475,1.007,3.749,1.007c2.597,0,5.124-1.349,6.516-3.76
			C432.834,97.302,431.602,92.706,428.008,90.631z"/>
	</g>
</g>
<g>
	<g>
		<path d="M430.76,9.699c-2.074-3.594-6.67-4.827-10.265-2.752l-30.318,17.495c-3.594,2.074-4.826,6.67-2.752,10.265
			c1.392,2.412,3.918,3.76,6.516,3.76c1.274,0,2.566-0.325,3.749-1.007l30.318-17.496C431.602,17.89,432.834,13.294,430.76,9.699z"
			/>
	</g>
</g>
<g>
</g>
<g>
</g>
<g>
</g>
<g>
</g>
<g>
</g>
<g>
</g>
<g>
</g>
<g>
</g>
<g>
</g>
<g>
</g>
<g>
</g>
<g>
</g>
<g>
</g>
<g>
</g>
<g>
</g>
</svg>
